<?xml version="1.0" standalone="no"?>
<!DOCTYPE svg PUBLIC "-//W3C//DTD SVG 1.0//EN" "http://www.w3.org/TR/2001/REC-SVG-20010904/DTD/svg10.dtd">
<svg xmlns="http://www.w3.org/2000/svg" xmlns:xlink="http://www.w3.org/1999/xlink" id="body_1" width="2970" height="2227">

<g transform="matrix(4.401186 0 0 4.401186 109.22915 -0)">
	<g transform="matrix(0.1 0 -0 -0.1 0 506)">
        <path d="M3645 3960C 3628 3955 3600 3935 3581 3916C 3550 3884 3525 3806 3164 2603C 2953 1900 2780 1314 2780 1300C 2780 1286 2790 1254 2803 1230C 2863 1109 3023 1107 3086 1225C 3114 1278 3860 3767 3860 3809C 3860 3854 3826 3914 3787 3939C 3747 3963 3686 3972 3645 3960z" stroke="none" fill="#F4A261" fill-rule="nonzero" />
        <path d="M2515 3578C 2475 3563 1450 2667 1428 2626C 1418 2609 1410 2575 1410 2550C 1410 2525 1418 2491 1428 2474C 1447 2439 2452 1555 2503 1528C 2521 1519 2549 1511 2565 1510C 2605 1510 2679 1548 2703 1582C 2728 1616 2737 1700 2720 1741C 2711 1761 2571 1891 2306 2123C 2086 2317 1887 2492 1865 2513L1865 2513L1825 2550L1865 2588C 1887 2608 2086 2783 2306 2977C 2602 3237 2711 3337 2719 3361C 2749 3449 2719 3528 2640 3568C 2592 3592 2561 3594 2515 3578z" stroke="none" fill="#F4A261" fill-rule="nonzero" />
        <path d="M4025 3583C 3994 3575 3942 3532 3925 3500C 3907 3466 3906 3406 3921 3362C 3929 3339 4039 3236 4323 2986C 4539 2798 4738 2622 4765 2596L4765 2596L4815 2550L4765 2504C 4738 2478 4539 2303 4324 2114C 4070 1891 3928 1760 3920 1740C 3903 1700 3912 1615 3937 1582C 3961 1548 4035 1510 4075 1510C 4091 1511 4119 1519 4137 1528C 4171 1546 5115 2367 5185 2440C 5224 2480 5225 2483 5225 2550C 5225 2615 5223 2621 5190 2656C 5110 2739 4156 3566 4127 3577C 4094 3589 4059 3591 4025 3583z" stroke="none" fill="#F4A261" fill-rule="nonzero" />
	</g>
</g>
</svg>
