<svg id="svg" version="1.1" xmlns="http://www.w3.org/2000/svg" xmlns:xlink="http://www.w3.org/1999/xlink" width="400" height="62.599999999999994" viewBox="0, 0, 400,62.599999999999994"><g id="svgg"><path id="path0" d="M27.167 5.274 C 25.123 5.675,26.545 4.376,11.750 19.349 C 1.421 29.803,0.167 31.091,0.167 31.250 C 0.167 31.409,1.483 32.762,11.750 43.152 C 21.990 53.514,24.499 56.019,25.083 56.463 C 26.533 57.563,30.093 57.502,31.560 56.351 C 32.496 55.616,33.315 54.555,33.556 53.764 C 34.042 52.167,34.160 51.566,34.066 51.158 C 34.015 50.934,33.905 50.427,33.823 50.032 C 33.642 49.162,33.235 48.277,32.765 47.729 C 31.472 46.220,17.059 31.927,16.872 31.969 C 16.744 31.997,16.153 32.354,15.559 32.760 C 14.189 33.699,14.068 33.694,15.050 32.739 C 15.481 32.320,15.833 31.908,15.833 31.822 C 15.833 31.737,15.893 31.685,15.966 31.708 C 16.040 31.731,16.658 31.156,17.341 30.430 C 18.024 29.704,21.708 25.954,25.528 22.097 C 34.115 13.425,33.549 14.073,33.767 12.651 C 33.828 12.247,33.942 11.836,34.019 11.738 C 34.195 11.512,34.159 10.349,33.973 10.233 C 33.896 10.186,33.833 10.010,33.833 9.843 C 33.833 8.329,32.115 6.153,30.458 5.569 C 29.729 5.311,27.838 5.142,27.167 5.274 M64.333 5.387 C 63.412 5.599,62.133 6.299,61.667 6.845 C 60.955 7.680,60.772 7.917,60.838 7.917 C 60.878 7.917,60.781 8.102,60.622 8.329 C 60.463 8.555,60.333 8.869,60.333 9.025 C 60.333 9.182,60.232 9.411,60.108 9.534 C 59.985 9.658,59.789 10.057,59.673 10.421 C 59.557 10.785,59.251 11.506,58.994 12.022 C 58.736 12.538,58.433 13.269,58.320 13.647 C 58.206 14.024,58.067 14.333,58.009 14.333 C 57.952 14.333,57.723 14.858,57.500 15.500 C 57.277 16.142,57.036 16.667,56.964 16.667 C 56.892 16.667,56.833 16.780,56.833 16.919 C 56.833 17.058,56.763 17.301,56.677 17.461 C 56.344 18.077,55.537 19.948,55.332 20.579 C 55.213 20.943,55.015 21.342,54.892 21.466 C 54.768 21.589,54.667 21.802,54.667 21.938 C 54.667 22.074,54.458 22.612,54.202 23.134 C 53.947 23.656,53.594 24.515,53.418 25.042 C 53.242 25.569,53.044 26.000,52.979 26.000 C 52.914 26.000,52.693 26.506,52.489 27.125 C 52.284 27.744,52.068 28.287,52.007 28.333 C 51.947 28.379,51.795 28.679,51.670 29.000 C 51.545 29.321,51.193 30.133,50.888 30.804 C 50.583 31.475,50.333 32.126,50.333 32.250 C 50.333 32.375,50.236 32.575,50.117 32.696 C 49.998 32.818,49.729 33.377,49.520 33.941 C 49.311 34.504,48.958 35.323,48.736 35.761 C 48.515 36.198,48.333 36.688,48.333 36.850 C 48.333 37.011,48.236 37.242,48.117 37.363 C 47.998 37.484,47.722 38.071,47.503 38.667 C 47.284 39.262,47.054 39.787,46.991 39.833 C 46.929 39.879,46.821 40.104,46.752 40.333 C 46.683 40.563,46.383 41.275,46.087 41.917 C 45.791 42.558,45.451 43.381,45.332 43.745 C 45.214 44.110,45.015 44.509,44.892 44.632 C 44.768 44.756,44.667 44.968,44.667 45.105 C 44.667 45.241,44.442 45.806,44.167 46.360 C 43.892 46.914,43.664 47.454,43.661 47.559 C 43.659 47.664,43.471 48.125,43.245 48.583 C 42.596 49.899,42.398 51.131,42.635 52.371 C 42.746 52.946,42.848 53.510,42.862 53.625 C 42.877 53.740,42.946 53.833,43.015 53.833 C 43.084 53.833,43.222 54.079,43.321 54.380 C 43.475 54.846,44.136 55.565,45.238 56.466 C 46.464 57.468,50.532 57.477,51.434 56.481 C 51.590 56.308,51.819 56.167,51.943 56.167 C 52.252 56.167,53.615 54.280,53.750 53.666 C 53.810 53.391,53.923 53.167,54.000 53.167 C 54.077 53.167,54.270 52.774,54.429 52.295 C 54.589 51.816,54.895 51.073,55.109 50.646 C 55.324 50.218,55.500 49.805,55.500 49.728 C 55.500 49.651,55.677 49.212,55.894 48.752 C 56.573 47.312,56.833 46.664,56.833 46.411 C 56.833 46.277,56.902 46.167,56.987 46.167 C 57.071 46.167,57.268 45.773,57.424 45.292 C 57.580 44.810,57.839 44.192,57.999 43.917 C 58.159 43.642,58.427 43.042,58.595 42.583 C 58.762 42.125,58.941 41.712,58.992 41.667 C 59.043 41.621,59.187 41.283,59.311 40.917 C 59.435 40.550,59.748 39.828,60.006 39.312 C 60.264 38.795,60.567 38.064,60.680 37.687 C 60.794 37.309,60.949 37.000,61.026 37.000 C 61.104 37.000,61.153 36.944,61.136 36.875 C 61.119 36.806,61.231 36.460,61.386 36.105 C 61.540 35.750,61.667 35.412,61.667 35.353 C 61.667 35.295,61.841 34.910,62.053 34.499 C 62.266 34.087,62.540 33.431,62.663 33.042 C 62.786 32.652,62.938 32.333,63.001 32.333 C 63.063 32.333,63.293 31.808,63.512 31.167 C 63.730 30.525,63.961 30.000,64.024 30.000 C 64.088 30.000,64.267 29.606,64.422 29.125 C 64.688 28.297,64.907 27.786,66.008 25.417 C 66.264 24.867,66.572 24.117,66.694 23.750 C 66.815 23.383,66.966 23.045,67.028 22.998 C 67.091 22.951,67.309 22.463,67.512 21.915 C 67.716 21.366,67.933 20.879,67.994 20.833 C 68.055 20.787,68.282 20.262,68.500 19.667 C 68.718 19.071,68.946 18.546,69.007 18.500 C 69.068 18.454,69.213 18.117,69.328 17.750 C 69.444 17.383,69.749 16.661,70.006 16.145 C 70.264 15.629,70.567 14.898,70.680 14.520 C 70.794 14.142,70.949 13.833,71.026 13.833 C 71.104 13.833,71.155 13.777,71.140 13.708 C 71.125 13.640,71.210 13.358,71.328 13.083 C 71.754 12.093,71.501 8.333,71.009 8.333 C 70.946 8.333,70.770 8.071,70.617 7.750 C 70.464 7.429,70.258 7.167,70.160 7.167 C 70.061 7.167,70.017 7.108,70.061 7.036 C 70.105 6.965,69.866 6.721,69.529 6.495 C 69.192 6.269,68.820 5.993,68.703 5.882 C 68.136 5.345,65.707 5.071,64.333 5.387 M84.833 5.339 C 83.815 5.551,83.209 5.817,83.101 6.099 C 83.051 6.228,82.905 6.333,82.776 6.333 C 82.516 6.333,81.335 7.644,81.334 7.933 C 81.334 8.033,81.188 8.283,81.010 8.488 C 80.625 8.933,80.431 10.259,80.539 11.709 C 80.679 13.574,80.999 14.022,85.350 18.443 C 87.403 20.530,91.578 24.745,94.627 27.811 C 97.676 30.876,100.132 33.423,100.085 33.471 C 100.037 33.518,99.825 33.394,99.614 33.195 C 99.402 32.996,99.171 32.833,99.100 32.833 C 99.029 32.833,98.638 32.594,98.231 32.302 L 97.491 31.770 93.304 36.010 C 80.650 48.824,81.508 47.907,80.823 49.333 C 80.378 50.259,80.508 54.000,80.985 54.000 C 81.049 54.000,81.236 54.302,81.398 54.671 C 81.561 55.039,81.956 55.546,82.276 55.796 C 82.595 56.045,83.013 56.382,83.205 56.542 C 84.446 57.585,88.264 57.443,89.584 56.305 C 90.709 55.335,100.500 45.505,100.500 45.346 C 100.500 45.247,100.581 45.167,100.680 45.167 C 100.779 45.167,101.435 44.554,102.138 43.806 C 102.841 43.058,105.873 39.980,108.875 36.965 C 111.877 33.951,114.333 31.380,114.333 31.251 C 114.333 31.123,111.877 28.550,108.875 25.534 C 105.873 22.518,102.841 19.439,102.138 18.692 C 101.435 17.945,100.779 17.333,100.680 17.333 C 100.581 17.333,100.500 17.255,100.500 17.158 C 100.500 17.005,90.691 7.147,89.637 6.241 C 88.692 5.428,86.437 5.005,84.833 5.339 " stroke="none" fill="#e3863f" fill-rule="evenodd"></path><path id="path1" d="M267.000 0.508 C 266.221 0.592,265.283 0.740,264.917 0.836 C 264.550 0.932,263.650 1.168,262.917 1.359 C 261.685 1.680,259.194 2.725,259.000 3.001 C 258.954 3.067,258.654 3.253,258.333 3.415 C 257.678 3.746,257.597 3.811,256.375 4.980 C 255.894 5.441,255.500 5.886,255.500 5.969 C 255.500 6.053,255.324 6.300,255.109 6.519 C 254.894 6.738,254.584 7.273,254.420 7.708 C 254.256 8.144,254.071 8.500,254.009 8.500 C 253.705 8.500,253.169 11.744,253.169 13.583 C 253.169 16.423,254.085 19.838,255.065 20.651 C 255.213 20.774,255.333 20.964,255.333 21.073 C 255.333 21.937,259.903 24.975,262.250 25.672 C 262.617 25.781,263.292 26.007,263.750 26.175 C 264.208 26.343,265.221 26.612,266.000 26.773 C 266.779 26.934,267.463 27.132,267.519 27.213 C 267.575 27.295,267.670 27.348,267.731 27.332 C 267.872 27.293,271.457 28.032,272.167 28.246 C 272.304 28.288,273.204 28.485,274.167 28.685 C 275.129 28.884,275.965 29.121,276.023 29.212 C 276.082 29.302,276.213 29.325,276.315 29.262 C 276.417 29.199,276.500 29.226,276.500 29.323 C 276.500 29.421,276.648 29.500,276.829 29.500 C 277.508 29.500,279.975 30.813,280.748 31.585 C 281.304 32.141,281.833 33.034,281.833 33.416 C 281.833 33.554,281.908 33.667,282.000 33.667 C 282.098 33.667,282.167 34.250,282.167 35.083 C 282.167 35.917,282.098 36.500,282.000 36.500 C 281.908 36.500,281.833 36.589,281.833 36.697 C 281.833 37.058,281.109 38.413,280.795 38.639 C 280.626 38.761,280.356 39.001,280.197 39.172 C 279.862 39.532,278.553 40.158,278.125 40.163 C 277.965 40.165,277.833 40.234,277.833 40.316 C 277.833 41.109,267.180 41.145,266.676 40.353 C 266.625 40.273,266.143 40.069,265.606 39.900 C 265.068 39.732,264.591 39.498,264.546 39.380 C 264.501 39.263,264.371 39.167,264.257 39.167 C 264.007 39.167,262.333 37.615,262.333 37.383 C 262.333 37.292,262.152 37.008,261.931 36.751 C 261.710 36.493,261.437 35.955,261.325 35.554 C 261.213 35.153,261.056 34.785,260.977 34.736 C 260.898 34.687,260.833 34.491,260.833 34.300 C 260.833 33.978,260.772 33.962,259.958 34.074 C 258.846 34.228,258.640 34.266,258.333 34.379 C 258.013 34.497,253.012 35.216,252.625 35.200 C 252.465 35.193,252.333 35.258,252.333 35.344 C 252.333 35.430,252.040 35.500,251.681 35.500 C 251.005 35.500,250.783 35.724,251.020 36.167 C 251.094 36.304,251.307 36.979,251.493 37.666 C 251.679 38.354,251.907 38.941,251.999 38.972 C 252.091 39.003,252.167 39.101,252.167 39.190 C 252.167 39.450,252.817 40.804,252.995 40.914 C 253.085 40.969,253.278 41.267,253.424 41.576 C 254.202 43.214,258.014 46.170,260.310 46.916 C 260.802 47.075,261.392 47.303,261.621 47.422 C 261.851 47.541,262.761 47.766,263.644 47.922 C 264.527 48.078,265.362 48.245,265.500 48.294 C 266.855 48.778,272.394 48.969,275.833 48.651 C 276.887 48.553,277.880 48.474,278.038 48.476 C 278.197 48.478,278.370 48.409,278.423 48.323 C 278.476 48.237,278.712 48.167,278.948 48.167 C 279.471 48.167,282.353 47.508,282.583 47.335 C 282.675 47.267,283.162 47.077,283.667 46.914 C 284.171 46.750,284.844 46.440,285.164 46.225 C 285.483 46.010,285.840 45.833,285.957 45.833 C 286.074 45.833,286.298 45.683,286.455 45.500 C 286.612 45.317,286.837 45.167,286.954 45.167 C 287.257 45.167,289.596 42.820,289.737 42.373 C 289.803 42.168,289.929 42.000,290.019 42.000 C 290.356 42.000,291.498 39.261,291.704 37.958 C 291.816 37.248,291.958 36.667,292.019 36.667 C 292.198 36.667,292.197 32.865,292.018 32.284 C 291.928 31.990,291.723 31.128,291.564 30.367 C 291.405 29.606,291.223 28.951,291.159 28.912 C 291.095 28.872,290.840 28.426,290.593 27.921 C 290.107 26.928,289.795 26.515,288.724 25.443 C 287.686 24.406,287.155 23.988,286.505 23.695 C 286.181 23.549,285.804 23.338,285.665 23.226 C 285.216 22.860,282.277 21.735,281.167 21.503 C 280.571 21.379,280.046 21.227,280.000 21.166 C 279.954 21.105,279.094 20.882,278.088 20.672 C 277.082 20.462,276.144 20.230,276.004 20.157 C 275.865 20.084,274.887 19.864,273.833 19.669 C 272.779 19.474,271.617 19.215,271.250 19.095 C 270.883 18.975,270.021 18.748,269.333 18.591 C 268.646 18.435,267.840 18.200,267.542 18.070 C 266.259 17.510,265.745 17.261,265.667 17.163 C 265.621 17.105,265.313 16.876,264.982 16.654 C 262.275 14.835,262.591 10.233,265.521 8.800 C 266.403 8.368,267.231 8.084,267.458 8.135 C 267.573 8.160,267.667 8.112,267.667 8.027 C 267.667 7.644,273.419 7.484,274.833 7.827 C 275.246 7.927,275.713 8.040,275.871 8.078 C 276.575 8.245,278.298 9.204,278.790 9.703 C 279.923 10.852,280.158 11.193,280.516 12.206 C 281.053 13.723,280.972 13.682,283.000 13.470 C 283.962 13.370,284.787 13.235,284.833 13.171 C 284.879 13.107,286.192 12.919,287.750 12.753 C 289.308 12.586,290.648 12.393,290.728 12.322 C 291.111 11.983,289.608 7.459,288.838 6.633 C 288.652 6.434,288.500 6.185,288.500 6.080 C 288.500 5.853,286.417 3.667,286.200 3.667 C 286.117 3.667,285.862 3.493,285.633 3.281 C 285.404 3.070,284.812 2.723,284.317 2.510 C 283.822 2.298,283.375 2.059,283.324 1.979 C 283.272 1.899,282.597 1.679,281.824 1.490 C 281.050 1.302,280.267 1.079,280.083 0.996 C 279.010 0.508,270.098 0.176,267.000 0.508 M128.500 24.521 L 128.500 48.205 139.792 48.114 C 151.415 48.021,153.004 47.932,154.667 47.287 C 154.804 47.233,155.367 47.066,155.917 46.916 C 156.851 46.660,158.768 45.864,159.333 45.497 C 159.471 45.408,159.921 45.171,160.333 44.970 C 160.746 44.769,161.262 44.432,161.481 44.219 C 161.700 44.007,161.972 43.833,162.087 43.833 C 162.201 43.833,162.418 43.646,162.568 43.417 C 162.718 43.188,162.914 43.000,163.003 43.000 C 163.186 43.000,165.222 40.984,165.790 40.239 C 166.502 39.308,167.629 37.547,167.742 37.191 C 167.805 36.994,167.920 36.833,167.998 36.833 C 168.076 36.833,168.302 36.346,168.500 35.750 C 168.698 35.154,168.915 34.667,168.983 34.667 C 169.050 34.667,169.280 33.935,169.494 33.042 C 169.709 32.148,169.940 31.342,170.008 31.250 C 170.802 30.181,170.806 17.706,170.013 17.167 C 169.945 17.121,169.791 16.610,169.670 16.031 C 169.549 15.452,169.239 14.533,168.982 13.989 C 168.725 13.445,168.547 13.000,168.587 13.000 C 168.627 13.000,168.513 12.756,168.334 12.458 C 168.155 12.160,167.858 11.642,167.675 11.305 C 166.888 9.865,164.668 7.125,163.878 6.618 C 163.765 6.546,163.428 6.263,163.128 5.989 C 162.828 5.715,162.377 5.400,162.125 5.288 C 161.873 5.177,161.667 5.046,161.667 4.998 C 161.667 4.949,161.312 4.724,160.878 4.497 C 160.444 4.269,159.995 3.996,159.880 3.889 C 159.765 3.782,159.278 3.564,158.798 3.405 C 158.317 3.245,157.842 3.032,157.741 2.931 C 157.640 2.830,156.963 2.602,156.237 2.424 C 155.511 2.246,154.879 2.051,154.833 1.991 C 154.645 1.745,150.489 1.167,148.905 1.167 C 148.315 1.167,147.833 1.094,147.833 1.005 C 147.833 0.903,144.287 0.843,138.167 0.840 L 128.500 0.837 128.500 24.521 M386.214 3.955 C 385.776 5.406,385.116 7.298,384.819 7.957 C 384.644 8.345,384.500 8.752,384.500 8.861 C 384.500 9.134,384.110 10.231,383.976 10.333 C 383.917 10.379,383.782 10.735,383.677 11.125 L 383.487 11.833 380.994 11.833 L 378.500 11.833 378.500 15.167 L 378.500 18.500 380.833 18.500 L 383.167 18.500 383.167 30.053 C 383.167 37.479,383.230 41.959,383.344 42.594 C 383.552 43.755,383.850 44.667,384.022 44.667 C 384.089 44.667,384.197 44.834,384.262 45.038 C 384.405 45.489,385.683 47.000,385.921 47.000 C 386.016 47.000,386.214 47.141,386.361 47.314 C 386.509 47.486,387.032 47.759,387.523 47.919 C 388.015 48.080,388.510 48.284,388.623 48.375 C 389.208 48.837,396.298 48.757,396.773 48.283 C 396.837 48.219,397.030 48.167,397.203 48.167 C 397.376 48.167,398.039 48.048,398.675 47.903 L 399.833 47.640 399.833 44.548 L 399.833 41.456 399.208 41.567 C 395.850 42.158,393.754 41.605,393.250 39.994 C 393.180 39.768,393.038 39.530,392.936 39.464 C 392.803 39.380,392.737 36.361,392.703 28.923 L 392.657 18.500 396.078 18.500 L 399.500 18.500 399.500 15.167 L 399.500 11.833 396.086 11.833 L 392.672 11.833 392.628 7.625 L 392.583 3.417 389.494 3.371 L 386.404 3.326 386.214 3.955 M148.167 9.048 C 148.487 9.086,148.862 9.158,149.000 9.208 C 149.137 9.258,149.912 9.430,150.720 9.590 C 151.529 9.750,152.279 9.967,152.387 10.072 C 152.495 10.177,152.996 10.438,153.500 10.652 C 154.004 10.865,154.477 11.144,154.550 11.270 C 154.623 11.397,154.798 11.500,154.938 11.500 C 155.206 11.500,157.667 13.906,157.667 14.168 C 157.667 14.252,157.802 14.455,157.967 14.619 C 158.132 14.782,158.411 15.254,158.587 15.667 C 158.763 16.079,158.974 16.463,159.054 16.520 C 159.135 16.578,159.364 17.253,159.564 18.020 C 159.763 18.788,159.977 19.498,160.039 19.597 C 160.483 20.306,160.573 25.859,160.178 28.092 C 159.978 29.220,159.182 32.051,159.034 32.161 C 158.967 32.210,158.732 32.644,158.511 33.125 C 158.290 33.606,158.066 34.000,158.012 34.000 C 157.959 34.000,157.821 34.206,157.707 34.458 C 156.736 36.595,153.028 39.238,150.167 39.832 C 149.661 39.937,146.879 40.064,143.958 40.115 L 138.667 40.207 138.667 24.515 L 138.667 8.823 143.125 8.901 C 145.577 8.944,147.846 9.010,148.167 9.048 M317.165 11.336 C 316.202 11.506,315.189 11.737,314.915 11.850 C 314.641 11.963,314.379 12.065,314.333 12.077 C 313.972 12.168,312.333 13.084,312.333 13.194 C 312.333 13.271,312.240 13.334,312.125 13.334 C 311.727 13.336,309.643 15.504,309.286 16.287 C 309.191 16.496,309.056 16.667,308.985 16.667 C 308.915 16.667,308.829 16.798,308.795 16.958 C 308.760 17.119,308.686 16.162,308.631 14.833 C 308.576 13.504,308.477 12.284,308.413 12.122 C 308.304 11.849,307.956 11.831,303.606 11.872 L 298.917 11.917 298.893 12.792 C 298.880 13.273,298.936 13.667,299.018 13.667 C 299.104 13.667,299.167 23.801,299.167 37.917 L 299.167 62.167 304.004 62.167 L 308.841 62.167 308.796 52.575 C 308.755 44.015,308.777 43.020,309.000 43.326 C 311.095 46.199,313.136 47.800,315.116 48.121 C 315.419 48.170,315.667 48.263,315.667 48.327 C 315.667 48.392,315.760 48.449,315.875 48.456 C 315.990 48.462,316.608 48.548,317.250 48.647 C 318.725 48.874,320.605 48.877,322.000 48.653 C 322.596 48.557,323.177 48.471,323.292 48.462 C 323.406 48.452,323.500 48.382,323.500 48.306 C 323.500 48.229,323.632 48.167,323.794 48.167 C 324.168 48.167,325.862 47.552,325.988 47.370 C 326.040 47.294,326.346 47.110,326.667 46.960 C 327.335 46.649,329.667 44.516,329.667 44.218 C 329.667 44.108,329.798 43.921,329.959 43.801 C 330.120 43.681,330.401 43.283,330.584 42.917 C 330.767 42.550,330.968 42.211,331.031 42.163 C 331.174 42.055,331.833 40.531,331.833 40.308 C 331.833 40.217,331.932 40.044,332.054 39.923 C 332.175 39.802,332.410 39.038,332.577 38.226 C 332.745 37.414,332.938 36.675,333.008 36.583 C 333.654 35.732,333.653 23.435,333.006 23.000 C 332.938 22.954,332.788 22.392,332.674 21.750 C 332.560 21.108,332.328 20.283,332.160 19.917 C 331.991 19.550,331.692 18.838,331.496 18.335 C 331.300 17.832,331.090 17.382,331.028 17.335 C 330.967 17.288,330.734 16.912,330.511 16.500 C 330.288 16.087,329.969 15.652,329.803 15.532 C 329.636 15.412,329.500 15.244,329.500 15.157 C 329.500 14.977,328.226 13.667,328.051 13.667 C 327.987 13.667,327.743 13.488,327.509 13.271 C 326.970 12.769,325.563 11.992,325.432 12.123 C 325.378 12.178,325.333 12.147,325.333 12.054 C 325.333 11.271,320.130 10.813,317.165 11.336 M190.833 11.268 C 189.292 11.404,186.739 11.867,186.417 12.070 C 186.233 12.185,185.720 12.402,185.276 12.551 C 184.833 12.701,184.100 13.051,183.649 13.328 C 183.198 13.606,182.781 13.833,182.723 13.833 C 182.666 13.833,182.461 13.984,182.268 14.168 C 182.075 14.353,181.373 15.023,180.708 15.658 C 180.044 16.293,179.500 16.878,179.500 16.958 C 179.500 17.038,179.335 17.280,179.134 17.496 C 178.682 17.982,177.167 20.965,177.167 21.370 C 177.167 21.533,177.100 21.667,177.018 21.667 C 176.833 21.667,176.163 25.166,176.165 26.125 C 176.166 26.515,176.095 26.833,176.008 26.833 C 175.813 26.833,175.792 32.662,175.986 32.910 C 176.060 33.005,176.170 33.637,176.231 34.315 C 176.355 35.718,176.807 38.041,176.979 38.166 C 177.043 38.212,177.274 38.794,177.492 39.458 C 177.711 40.123,177.941 40.667,178.003 40.667 C 178.065 40.667,178.256 40.976,178.426 41.354 C 178.719 42.004,179.077 42.519,180.130 43.804 C 180.379 44.109,180.608 44.427,180.639 44.512 C 180.669 44.597,180.775 44.667,180.874 44.667 C 180.973 44.667,181.248 44.879,181.485 45.139 C 181.722 45.399,182.177 45.755,182.495 45.931 C 182.813 46.106,183.204 46.365,183.363 46.506 C 183.522 46.646,183.934 46.863,184.278 46.987 C 184.623 47.112,185.001 47.311,185.120 47.429 C 185.238 47.547,185.916 47.772,186.626 47.927 C 187.336 48.083,187.992 48.254,188.083 48.309 C 188.993 48.847,193.374 48.921,197.458 48.468 C 197.573 48.455,197.667 48.392,197.667 48.327 C 197.667 48.262,197.985 48.159,198.375 48.097 C 199.474 47.922,200.833 47.493,200.833 47.322 C 200.833 47.236,200.916 47.167,201.016 47.167 C 202.133 47.167,205.124 44.800,206.494 42.833 C 206.718 42.512,206.947 42.212,207.004 42.167 C 207.352 41.885,208.750 38.861,208.601 38.712 C 208.573 38.684,207.807 38.615,206.900 38.558 C 205.992 38.501,205.164 38.387,205.059 38.305 C 204.954 38.222,204.804 38.172,204.726 38.193 C 204.559 38.238,201.472 38.034,200.230 37.895 L 199.377 37.800 199.264 38.400 C 199.202 38.730,199.098 39.000,199.033 39.000 C 198.968 39.000,198.817 39.220,198.698 39.489 C 198.446 40.059,197.575 40.954,197.137 41.093 C 196.970 41.146,196.833 41.254,196.833 41.333 C 196.833 41.809,193.691 42.255,192.127 42.000 C 190.968 41.812,188.667 40.714,188.667 40.350 C 188.667 40.276,188.498 40.033,188.292 39.810 C 187.785 39.262,187.333 38.556,187.333 38.311 C 187.333 38.200,187.229 37.991,187.102 37.846 C 186.768 37.466,186.339 35.384,186.219 33.568 L 186.116 32.000 197.649 32.000 L 209.182 32.000 209.156 29.916 C 209.142 28.769,209.075 27.796,209.006 27.753 C 208.937 27.711,208.830 27.093,208.768 26.380 C 208.619 24.663,208.357 23.198,208.087 22.583 C 207.967 22.308,207.697 21.502,207.487 20.792 C 207.277 20.081,207.052 19.500,206.986 19.500 C 206.920 19.500,206.788 19.276,206.692 19.002 C 206.597 18.728,206.289 18.171,206.009 17.764 C 205.729 17.356,205.500 16.964,205.500 16.892 C 205.500 16.751,205.263 16.484,204.114 15.333 C 203.040 14.259,202.373 13.667,202.235 13.667 C 202.169 13.667,201.883 13.493,201.599 13.281 C 201.090 12.900,199.286 12.104,199.067 12.164 C 199.005 12.181,198.906 12.117,198.847 12.021 C 198.574 11.580,193.112 11.066,190.833 11.268 M354.833 11.277 C 353.378 11.379,350.500 11.880,350.500 12.032 C 350.500 12.117,350.422 12.138,350.326 12.079 C 350.230 12.020,350.062 12.042,349.951 12.129 C 349.840 12.216,349.319 12.421,348.792 12.583 C 348.265 12.746,347.833 12.948,347.833 13.033 C 347.833 13.117,347.758 13.140,347.667 13.083 C 347.575 13.027,347.500 13.054,347.500 13.144 C 347.500 13.234,347.250 13.390,346.944 13.491 C 346.638 13.592,346.244 13.806,346.069 13.967 C 345.893 14.128,345.509 14.429,345.214 14.637 C 344.456 15.171,342.500 17.094,342.500 17.305 C 342.500 17.402,342.369 17.580,342.208 17.701 C 342.048 17.822,341.823 18.089,341.708 18.294 C 341.594 18.499,341.406 18.835,341.292 19.042 C 341.177 19.248,341.046 19.454,341.000 19.500 C 340.834 19.666,340.333 20.850,340.333 21.077 C 340.333 21.205,340.229 21.413,340.103 21.540 C 339.976 21.667,339.709 22.516,339.510 23.427 C 339.311 24.338,339.059 25.383,338.949 25.750 C 338.628 26.825,338.683 33.154,339.026 34.500 C 339.177 35.096,339.432 36.165,339.592 36.875 C 339.752 37.585,339.947 38.167,340.025 38.167 C 340.103 38.167,340.167 38.273,340.167 38.403 C 340.167 39.150,341.601 41.603,342.875 43.034 C 343.127 43.318,343.333 43.598,343.333 43.658 C 343.333 43.809,345.464 45.538,346.125 45.923 C 346.423 46.096,346.667 46.284,346.667 46.339 C 346.667 46.394,347.098 46.616,347.625 46.832 C 348.152 47.048,348.629 47.293,348.685 47.377 C 348.741 47.460,348.816 47.517,348.852 47.503 C 348.888 47.490,349.029 47.517,349.167 47.564 C 350.022 47.856,351.284 48.167,351.614 48.167 C 351.826 48.167,352.000 48.229,352.000 48.306 C 352.000 48.468,351.800 48.439,354.716 48.693 C 356.524 48.851,357.484 48.850,359.216 48.688 C 360.426 48.574,361.510 48.473,361.625 48.463 C 361.740 48.453,361.833 48.382,361.833 48.306 C 361.833 48.229,361.971 48.167,362.140 48.167 C 362.609 48.167,365.053 47.515,365.158 47.362 C 365.209 47.288,365.587 47.095,366.000 46.934 C 366.709 46.657,368.120 45.845,368.667 45.398 C 369.581 44.651,371.666 42.546,371.667 42.370 C 371.667 42.252,371.773 42.115,371.903 42.065 C 372.033 42.015,372.338 41.569,372.581 41.074 C 372.823 40.578,373.086 40.133,373.165 40.085 C 373.243 40.036,373.437 39.603,373.595 39.123 C 373.753 38.643,373.937 38.212,374.003 38.167 C 374.161 38.058,374.833 35.313,374.833 34.776 C 374.833 34.548,374.927 34.330,375.042 34.292 C 375.201 34.238,375.250 33.220,375.250 29.953 C 375.250 26.759,375.197 25.631,375.042 25.475 C 374.927 25.360,374.833 25.062,374.833 24.813 C 374.833 24.153,374.161 21.333,374.003 21.333 C 373.930 21.333,373.818 21.127,373.755 20.875 C 373.651 20.459,373.324 19.759,372.619 18.442 C 371.776 16.870,369.216 14.421,367.500 13.547 C 367.179 13.384,366.892 13.193,366.861 13.124 C 366.830 13.055,366.736 13.040,366.652 13.092 C 366.569 13.144,366.500 13.113,366.500 13.023 C 366.500 12.934,366.106 12.738,365.625 12.588 C 365.144 12.438,364.616 12.242,364.452 12.152 C 364.287 12.062,364.081 12.033,363.993 12.088 C 363.905 12.142,363.833 12.119,363.833 12.037 C 363.833 11.556,357.953 11.060,354.833 11.277 M211.461 11.928 C 211.347 12.042,211.609 13.059,211.931 13.750 C 212.186 14.297,212.785 16.007,213.450 18.083 C 213.685 18.817,213.933 19.454,214.002 19.500 C 214.071 19.546,214.259 20.071,214.420 20.667 C 214.581 21.262,214.803 21.900,214.915 22.083 C 215.026 22.267,215.289 22.998,215.499 23.708 C 215.710 24.419,215.946 25.000,216.024 25.000 C 216.103 25.000,216.167 25.103,216.167 25.228 C 216.167 25.537,216.802 27.507,216.975 27.735 C 217.051 27.835,217.285 28.535,217.496 29.292 C 217.707 30.048,217.933 30.667,217.998 30.667 C 218.063 30.667,218.285 31.304,218.490 32.083 C 218.696 32.862,218.919 33.500,218.985 33.500 C 219.051 33.500,219.278 34.100,219.490 34.833 C 219.702 35.567,219.941 36.167,220.021 36.167 C 220.101 36.167,220.167 36.269,220.167 36.395 C 220.167 36.695,220.759 38.544,220.983 38.940 C 221.079 39.111,221.311 39.769,221.499 40.404 C 221.687 41.038,221.906 41.638,221.986 41.737 C 222.066 41.836,222.298 42.535,222.501 43.292 C 222.704 44.048,222.923 44.667,222.987 44.667 C 223.052 44.667,223.278 45.267,223.490 46.000 C 223.702 46.733,223.935 47.333,224.009 47.333 C 224.083 47.333,224.167 47.502,224.197 47.708 L 224.250 48.083 229.938 48.127 L 235.625 48.171 235.867 47.794 C 235.999 47.586,236.284 46.854,236.500 46.167 C 236.717 45.479,236.941 44.879,236.998 44.833 C 237.120 44.737,237.833 42.501,237.833 42.218 C 237.833 42.113,237.909 42.003,238.001 41.972 C 238.093 41.941,238.328 41.354,238.521 40.666 C 238.715 39.979,238.932 39.379,239.003 39.333 C 239.074 39.287,239.302 38.688,239.509 38.000 C 239.716 37.313,239.935 36.712,239.996 36.667 C 240.057 36.621,240.284 36.021,240.500 35.333 C 240.716 34.646,240.943 34.046,241.004 34.000 C 241.137 33.901,241.833 31.706,241.833 31.389 C 241.833 31.267,241.894 31.167,241.967 31.167 C 242.041 31.167,242.272 30.623,242.482 29.958 C 242.691 29.294,243.002 28.450,243.172 28.083 C 243.342 27.717,243.569 27.060,243.677 26.625 C 243.785 26.190,243.928 25.833,243.996 25.833 C 244.063 25.833,244.289 25.252,244.497 24.542 C 244.705 23.831,244.931 23.175,244.999 23.083 C 245.067 22.992,245.293 22.392,245.503 21.750 C 245.712 21.108,245.965 20.528,246.066 20.461 C 246.167 20.394,246.203 20.337,246.144 20.336 C 246.086 20.334,246.335 19.527,246.698 18.542 C 247.060 17.556,247.479 16.375,247.628 15.917 C 247.778 15.458,247.950 15.046,248.010 15.000 C 248.070 14.954,248.291 14.335,248.501 13.625 C 248.710 12.915,248.946 12.333,249.024 12.333 C 249.103 12.333,249.167 12.221,249.167 12.083 C 249.167 11.867,248.493 11.833,244.104 11.833 C 238.641 11.833,238.795 11.808,238.579 12.751 C 238.516 13.025,238.173 14.130,237.816 15.205 C 237.459 16.280,237.167 17.274,237.167 17.413 C 237.167 17.553,237.100 17.667,237.019 17.667 C 236.938 17.667,236.832 17.873,236.784 18.125 C 236.600 19.091,236.218 20.431,236.035 20.750 C 235.930 20.933,235.685 21.673,235.491 22.394 C 235.297 23.115,235.006 24.015,234.845 24.394 C 234.683 24.773,234.496 25.383,234.429 25.750 C 234.363 26.117,234.216 26.567,234.102 26.750 C 233.988 26.933,233.756 27.608,233.586 28.250 C 233.416 28.892,233.064 30.000,232.805 30.713 C 232.546 31.426,232.333 32.139,232.332 32.296 C 232.332 32.454,232.229 32.779,232.104 33.019 C 231.979 33.259,231.703 34.121,231.490 34.936 C 231.277 35.750,231.054 36.454,230.994 36.500 C 230.933 36.546,230.751 37.146,230.588 37.833 C 230.426 38.521,230.190 39.178,230.065 39.294 C 229.940 39.409,229.862 39.465,229.893 39.416 C 229.924 39.368,229.731 38.524,229.465 37.539 C 229.199 36.555,228.801 35.049,228.581 34.192 C 228.360 33.335,228.109 32.547,228.022 32.442 C 227.934 32.336,227.809 31.950,227.742 31.583 C 227.676 31.217,227.450 30.429,227.241 29.833 C 227.032 29.238,226.692 28.113,226.487 27.333 C 226.282 26.554,226.062 25.879,225.999 25.833 C 225.936 25.787,225.711 25.075,225.500 24.250 C 225.289 23.425,225.062 22.712,224.996 22.667 C 224.929 22.621,224.717 21.955,224.524 21.187 C 224.330 20.419,224.106 19.706,224.025 19.604 C 223.945 19.501,223.746 18.854,223.584 18.167 C 223.421 17.479,223.195 16.729,223.080 16.500 C 222.965 16.271,222.698 15.446,222.487 14.667 C 222.275 13.887,222.005 13.063,221.885 12.833 C 221.766 12.604,221.668 12.285,221.668 12.125 C 221.667 11.836,211.745 11.644,211.461 11.928 M195.417 17.856 C 196.290 18.257,197.275 18.997,197.503 19.422 C 197.624 19.648,197.783 19.833,197.857 19.833 C 198.006 19.833,198.833 21.506,198.833 21.808 C 198.833 21.913,198.899 22.000,198.978 22.000 C 199.126 22.000,199.390 23.209,199.588 24.792 L 199.698 25.667 192.924 25.667 L 186.150 25.667 186.256 24.625 C 186.392 23.283,186.795 21.627,187.020 21.488 C 187.116 21.428,187.192 21.333,187.188 21.276 C 187.149 20.699,188.237 19.278,189.478 18.286 C 190.420 17.533,194.129 17.265,195.417 17.856 M318.945 18.486 C 320.615 19.295,321.911 20.838,322.429 22.633 C 322.579 23.156,322.810 23.883,322.942 24.250 C 323.528 25.879,323.609 34.734,323.042 35.157 C 322.973 35.208,322.783 35.775,322.619 36.417 C 322.356 37.451,322.085 38.095,321.426 39.250 C 321.149 39.735,320.087 40.833,319.895 40.833 C 319.804 40.833,319.583 40.970,319.404 41.137 C 318.421 42.052,314.324 42.260,313.450 41.438 C 313.340 41.335,313.045 41.144,312.794 41.015 C 311.283 40.236,309.825 37.828,309.391 35.394 C 309.245 34.582,309.045 33.742,308.945 33.529 C 308.699 33.003,308.708 26.935,308.956 26.637 C 309.056 26.516,309.136 26.359,309.134 26.289 C 309.110 25.575,309.754 22.830,309.984 22.667 C 310.048 22.621,310.274 22.175,310.486 21.675 C 311.094 20.240,313.194 18.333,314.166 18.333 C 314.350 18.333,314.500 18.263,314.500 18.177 C 314.500 17.632,317.632 17.850,318.945 18.486 M359.250 18.160 C 359.433 18.237,359.983 18.461,360.472 18.660 C 361.584 19.112,363.316 20.797,363.648 21.751 C 363.776 22.117,363.941 22.457,364.016 22.505 C 364.218 22.637,364.648 24.406,364.771 25.612 C 364.831 26.192,364.944 26.667,365.023 26.667 C 365.202 26.667,365.215 32.784,365.036 32.894 C 364.965 32.938,364.888 33.220,364.865 33.519 C 364.726 35.344,363.816 38.028,362.975 39.098 C 362.466 39.744,361.385 40.711,360.917 40.937 C 360.642 41.070,360.211 41.292,359.959 41.431 C 358.698 42.128,354.516 42.133,353.785 41.438 C 353.674 41.333,353.393 41.162,353.161 41.060 C 352.582 40.804,351.333 39.663,351.333 39.389 C 351.333 39.267,351.259 39.167,351.169 39.167 C 350.615 39.167,349.176 34.878,349.169 33.208 C 349.168 32.910,349.092 32.667,349.000 32.667 C 348.793 32.667,348.770 27.392,348.976 27.265 C 349.054 27.217,349.167 26.709,349.227 26.136 C 349.349 24.966,349.816 22.960,349.996 22.833 C 350.061 22.787,350.246 22.401,350.407 21.975 C 350.961 20.507,353.551 18.341,354.758 18.335 C 354.946 18.334,355.171 18.263,355.258 18.178 C 355.591 17.851,358.477 17.838,359.250 18.160 " stroke="none" fill="#48548c" fill-rule="evenodd"></path><path id="path2" d="" stroke="none" fill="#cca874" fill-rule="evenodd"></path><path id="path3" d="" stroke="none" fill="#746074" fill-rule="evenodd"></path><path id="path4" d="" stroke="none" fill="#781474" fill-rule="evenodd"></path></g></svg>